# xmcd
#
# Track frame offsets: 
#        150
#        21114
#        41607
#        63374
#        74350
#        96894
#        109206
#        119781
#        147277
#        166061
#        191880
#        217955
#
# Disc length: 3281 seconds
#
# Revision: 1
# Processed by: cddbd v1.5.1PL2 Copyright (c) Steve Scherf et al.
# Submitted via: ExactAudioCopy v0.95b3
#
DISCID=b20ccf0c
DTITLE=Lyle Ritz and Herb Ohta - A Night of Ukulele Jazz: Live at McCabe
DTITLE='s
DYEAR=2001
DGENRE=Jazz
TTITLE0=Lulu's Back In Town
TTITLE1=Triste
TTITLE2=Where Or When
TTITLE3=Tonight You Belong To Me
TTITLE4=Bluesette
TTITLE5=The Very Thought Of You
TTITLE6=September Song
TTITLE7=I'll Remember April
TTITLE8=Song For Anna
TTITLE9=Stompin' At The Savoy
TTITLE10=Joy Spring
TTITLE11=Fly Me To The Moon
EXTD=YEAR: 2001
EXTT0=
EXTT1=
EXTT2=
EXTT3=
EXTT4=
EXTT5=
EXTT6=
EXTT7=
EXTT8=
EXTT9=
EXTT10=
EXTT11=
PLAYORDER=
